<?xml version="1.0" encoding="UTF-8" standalone="no"?>
<svg
   xmlns:dc="http://purl.org/dc/elements/1.1/"
   xmlns:cc="http://creativecommons.org/ns#"
   xmlns:rdf="http://www.w3.org/1999/02/22-rdf-syntax-ns#"
   xmlns:svg="http://www.w3.org/2000/svg"
   xmlns="http://www.w3.org/2000/svg"
   version="1.1"
   id="svg2"
   viewBox="0 0 16 16"
   height="16"
   width="16">
  <metadata
     id="metadata12">
    <rdf:RDF>
      <cc:Work
         rdf:about="">
        <dc:format>image/svg+xml</dc:format>
        <dc:type
           rdf:resource="http://purl.org/dc/dcmitype/StillImage" />
        <dc:title></dc:title>
      </cc:Work>
    </rdf:RDF>
  </metadata>
  <defs
     id="defs10" />
  <path
     style="fill:none"
     id="path4"
     d="m -4,-4 24,0 0,24 -24,0 0,-24 z" />
  <path
     style="fill:#ff0000"
     id="path6"
     d="m 8,2 c 3.31,0 6,2.69 6,6 0,3.31 -2.69,6 -6,6 C 4.69,14 2,11.31 2,8 2,4.69 4.69,2 8,2 M 8,0 C 3.58,0 0,3.58 0,8 c 0,4.42 3.58,8 8,8 4.42,0 8,-3.58 8,-8 C 16,3.58 12.42,0 8,0 Z" />
</svg>
